<svg width="120" height="120" viewBox="0 0 120 120" xmlns="http://www.w3.org/2000/svg" style="width: 120px; height: 120px;"><g class="vf-stavenote" id="vf-auto5239"><g class="vf-note" pointer-events="bounding-box"><g class="vf-stem" pointer-events="bounding-box"><path stroke-width="1.5" fill="none" stroke="black" stroke-dasharray="none" d="M32.82152 80L32.82152 45"></path></g><g class="vf-notehead" pointer-events="bounding-box"><path stroke-width="0.3" fill="black" stroke="none" stroke-dasharray="none" d="M21.63752 80M21.63752 81.6848C21.63752 83.7908,23.37848 85.0544,25.56872 85.0544C29.162959999999998 85.0544,33.57152 81.74096,33.57152 78.3152C33.57152 76.23728,31.94288 74.9456,29.64032 74.9456C25.20368 74.9456,21.63752 78.23096,21.63752 81.6848"></path></g></g><g class="vf-modifiers"><path stroke-width="0.3" fill="black" stroke="none" stroke-dasharray="none" d="M22.99436 39.97264M22.967 39.53488C22.967 39.7264,23.021720000000002 39.94528,23.2406 39.97264C23.26796 40,23.3774 40,23.43212 40C23.59628 40,23.7878 39.94528,23.869880000000002 39.7264C23.869880000000002 39.7264,25.9766 35.04784,26.05868 34.88368C26.1134 34.8016,26.14076 34.77424,26.22284 34.77424C26.30492 34.77424,26.387 34.8016,26.46908 34.88368C26.49644 35.04784,28.712600000000002 39.7264,28.712600000000002 39.7264C28.82204 39.89056,28.9862 39.97264,29.15036 39.97264L31.83164 39.97264C32.10524 39.94528,32.24204 39.78112,32.24204 39.53488C32.24204 39.452799999999996,32.24204 39.37072,32.21468 39.34336L27.94652 30.23248C27.83708 30.095679999999998,27.72764 30.013599999999997,27.56348 30.013599999999997C27.28988 30.013599999999997,27.18044 30.23248,27.18044 30.23248L22.99436 39.34336C22.967 39.42544,22.967 39.452799999999996,22.967 39.53488"></path></g></g></svg>