<svg width="140" height="120" viewBox="0 0 140 120" xmlns="http://www.w3.org/2000/svg" style="width: 140px; height: 120px;"><path stroke-width="1" fill="none" stroke="#999999" stroke-dasharray="none" d="M0 40L140 40"></path><path stroke-width="1" fill="none" stroke="#999999" stroke-dasharray="none" d="M0 50L140 50"></path><path stroke-width="1" fill="none" stroke="#999999" stroke-dasharray="none" d="M0 60L140 60"></path><path stroke-width="1" fill="none" stroke="#999999" stroke-dasharray="none" d="M0 70L140 70"></path><path stroke-width="1" fill="none" stroke="#999999" stroke-dasharray="none" d="M0 80L140 80"></path><rect stroke-width="0.3" fill="black" stroke="black" stroke-dasharray="none" x="0" y="39.5" width="1" height="41"></rect><rect stroke-width="0.3" fill="black" stroke="black" stroke-dasharray="none" x="140" y="39.5" width="1" height="41"></rect><path stroke-width="0.3" fill="black" stroke="none" stroke-dasharray="none" d="M5 71M18.280256 80.199872C19.116608 80.199872,20.079680000000003 80.12384,20.814656 79.971776C21.194816000000003 79.89574400000001,21.270848 79.8704,21.346880000000002 80.301248C21.777728 82.759616,22.335296 85.927616,22.335296 87.651008C22.335296 93.04928000000001,18.685760000000002 93.708224,16.53152 93.708224C14.554688 93.708224,13.61696 93.12531200000001,13.61696 92.643776C13.61696 92.390336,13.946432000000001 92.28896,14.782784000000001 92.010176C15.923264000000001 91.680704,17.215808000000003 90.71763200000001,17.215808000000003 88.588736C17.215808000000003 86.58656,15.948608 84.863168,13.718336 84.863168C11.285312000000001 84.863168,9.81536 86.814656,9.81536 89.070272C9.81536 91.42726400000001,11.234624 95.026112,16.759616 95.026112C19.19264 95.026112,23.931968 93.910976,23.931968 87.72704C23.931968 85.62348800000001,23.273024000000003 82.176704,22.892864000000003 79.89574400000001C22.816832 79.464896,22.842176000000002 79.515584,23.349056 79.287488C27.049280000000003 77.817536,29.482304000000003 74.725568,29.482304000000003 70.594496C29.482304000000003 65.9312,26.060864000000002 61.800128,20.687936 61.800128C19.750208 61.800128,19.750208 61.800128,19.623488000000002 61.141183999999996L18.711104 55.844288C18.660416 55.41344,18.711104 55.388096,18.9392 55.16C22.892864000000003 51.485119999999995,25.883456000000002 46.847167999999996,25.883456000000002 41.246144C25.883456000000002 38.078143999999995,24.996416 34.935488,23.50112 32.755903999999994C22.943552 31.944896,22.005824 30.931135999999995,21.60032 30.931135999999995C21.09344 30.931135999999995,19.95296 31.868863999999995,19.243328 32.679871999999996C16.53152 35.670463999999996,15.644480000000001 40.232383999999996,15.644480000000001 44.033984C15.644480000000001 46.137536,15.923264000000001 48.519872,16.176704 50.015168C16.252736 50.446016,16.278080000000003 50.522048,15.847232 50.902208C10.57568 55.236031999999994,5 60.456896,5 67.832C5 74.168,9.333824 80.199872,18.280256 80.199872M7.91456 70.265024C7.91456 68.110784,8.29472 65.221568,11.310656000000002 61.800128C13.515584 59.367104,15.188288 57.998528,16.886336 56.629952C17.266496 56.325824,17.342528 56.376512,17.41856 56.756671999999995L18.17888 61.445312C18.280256 62.129599999999996,18.280256 62.104256,17.621312000000003 62.307007999999996C14.427968 63.3968,12.324416 66.286016,12.324416 69.403328C12.324416 72.672704,14.047808 75.004352,16.53152 75.866048C16.835648 75.967424,17.266496 76.0688,17.519936 76.0688C17.798720000000003 76.0688,17.950784 75.891392,17.950784 75.663296C17.950784 75.409856,17.672 75.30848,17.41856 75.207104C15.872576 74.54816,14.782784000000001 72.976832,14.782784000000001 71.304128C14.782784000000001 69.200576,16.202048 67.654592,18.43232 67.020992C19.015232 66.868928,19.091264000000002 66.919616,19.167296 67.32512L20.992064 78.19769600000001C21.068096 78.6032,21.017408 78.6032,20.485184000000004 78.704576C19.902272000000004 78.805952,19.167296 78.881984,18.43232 78.881984C12.045632000000001 78.881984,7.91456 75.33382399999999,7.91456 70.265024M22.157888 36.582848C23.349056 36.582848,24.337472 37.571264,24.337472 39.57344C24.337472 43.628479999999996,20.865344 46.923199999999994,18.001472 49.432255999999995C17.748032000000002 49.660352,17.595968 49.609663999999995,17.519936 49.128128C17.367872 48.1904,17.29184 46.948544,17.29184 45.78272C17.29184 40.08032,19.927616 36.582848,22.157888 36.582848M21.09344 66.742208C24.058688 66.995648,26.491712000000003 69.47936,26.491712000000003 72.672704C26.491712000000003 74.979008,25.097792000000002 76.82912,23.070272000000003 77.868224C22.639424 78.070976,22.563392 78.070976,22.487360000000002 77.640128L20.687936 67.249088C20.611904000000003 66.792896,20.662592000000004 66.69152,21.09344 66.742208"></path><path stroke-width="0.3" fill="black" stroke="none" stroke-dasharray="none" d="M41 60M41.46512 66.7032C41.60192 66.86736,41.71136 66.89472,41.8208 66.89472C41.9576 66.89472,42.06704 66.81264,42.06704 66.81264C43.24352 66.156,44.20112 65.08896,45.18608 64.40496C48.688159999999996 61.96992,49.891999999999996 59.56224,49.891999999999996 57.75648C49.891999999999996 55.51296,48.16832 54.09024,46.36256 53.9808C45.67856 53.9808,44.74832 54.28176,44.20112 54.63744C43.95488 54.82896,43.51712 55.18464,43.3256 55.18464C43.24352 55.18464,43.21616 55.18464,43.13408 55.15728C42.86048 55.04784,42.69632 54.74688,42.69632 54.47328C42.72368 53.62512,42.96992 44.15856,42.96992 43.365120000000005C42.96992 42.92736,42.61424 42.70848,42.2312 42.70848C41.65664 42.70848,41.02736 43.09152,41 43.80288C41 43.80288,41.16416 66.2928,41.46512 66.7032M42.80576 58.00272C43.07936 57.20928,44.66624 56.06016,45.56912 56.06016C46.71824 56.06016,47.18336 57.37344,47.18336 58.3584C47.18336 60.46512,45.3776 62.599199999999996,43.68128 63.66624C43.51712 63.74832,43.40768 63.77568,43.29824 63.77568C42.94256 63.77568,42.86048 63.39264,42.86048 63.20112C42.86048 63.20112,42.72368 60.8208,42.72368 59.26128C42.72368 58.632,42.7784 58.13952,42.80576 58.00272"></path><path stroke-width="0.3" fill="black" stroke="none" stroke-dasharray="none" d="M50.891999999999996 45M51.357119999999995 51.7032C51.493919999999996 51.86736,51.603359999999995 51.89472,51.712799999999994 51.89472C51.849599999999995 51.89472,51.959039999999995 51.81264,51.959039999999995 51.81264C53.13551999999999 51.156,54.09312 50.08896,55.07807999999999 49.40496C58.58015999999999 46.96992,59.78399999999999 44.56224,59.78399999999999 42.75648C59.78399999999999 40.51296,58.06032 39.09024,56.25456 38.9808C55.57055999999999 38.9808,54.640319999999996 39.28176,54.09312 39.63744C53.84688 39.82896,53.409119999999994 40.18464,53.2176 40.18464C53.13551999999999 40.18464,53.10816 40.18464,53.02607999999999 40.15728C52.75248 40.04784,52.588319999999996 39.74688,52.588319999999996 39.47328C52.61568 38.62512,52.86192 29.15856,52.86192 28.36512C52.86192 27.92736,52.50624 27.70848,52.1232 27.70848C51.54864 27.70848,50.91936 28.09152,50.891999999999996 28.802880000000002C50.891999999999996 28.802880000000002,51.05616 51.2928,51.357119999999995 51.7032M52.697759999999995 43.00272C52.97136 42.20928,54.55824 41.06016,55.461119999999994 41.06016C56.61024 41.06016,57.075359999999996 42.37344,57.075359999999996 43.3584C57.075359999999996 45.46512,55.2696 47.599199999999996,53.57328 48.66624C53.409119999999994 48.74832,53.299679999999995 48.77568,53.190239999999996 48.77568C52.834559999999996 48.77568,52.75248 48.39264,52.75248 48.20112C52.75248 48.20112,52.61568 45.8208,52.61568 44.26128C52.61568 43.632,52.670399999999994 43.13952,52.697759999999995 43.00272"></path></svg>