<svg width="180" height="140" viewBox="0 0 180 140" xmlns="http://www.w3.org/2000/svg" style="width: 180px; height: 140px;"><g class="vf-stavenote" id="vf-auto4780"><g class="vf-note" pointer-events="bounding-box"><g class="vf-stem" pointer-events="bounding-box"><path stroke-width="1.5" fill="none" stroke="black" stroke-dasharray="none" d="M17.75 87L17.75 120"></path></g><g class="vf-notehead" pointer-events="bounding-box"><path stroke-width="0.3" fill="black" stroke="none" stroke-dasharray="none" d="M17 85M17 86.6848C17 88.7908,18.74096 90.0544,20.9312 90.0544C24.52544 90.0544,28.934 86.74096,28.934 83.3152C28.934 81.23728,27.30536 79.9456,25.0028 79.9456C20.56616 79.9456,17 83.23096,17 86.6848"></path></g><g class="vf-flag" pointer-events="bounding-box"><path stroke-width="0.3" fill="black" stroke="none" stroke-dasharray="none" d="M17 122M17.44928 122.5616C18.20744 122.5616,18.5444 122.33696,18.62864 121.66304C19.30256 117.84416,22.30712 114.30608,24.35696 111.13304C26.91224 107.1176,29.38328 102.31592,29.38328 97.26152C29.38328 94.08848,28.56896 91.22432,28.232 89.93263999999999C28.119680000000002 89.48336,27.86696 89.31488,27.58616 89.31488C26.99648 89.31488,26.29448 90.10112,26.71568 91.28048C27.27728 92.96528,27.55808 94.98704000000001,27.55808 96.81224C27.55808 99.19904,26.5472 102.59672,25.92944 103.97264C24.441200000000002 107.37031999999999,22.41944 110.6276,17 112.4528L17 121.97192C17 122.44928,17.19656 122.5616,17.44928 122.5616"></path></g></g><g class="vf-modifiers"></g></g><g class="vf-stavenote" id="vf-auto4787"><g class="vf-note" pointer-events="bounding-box"><g class="vf-stem" pointer-events="bounding-box"><path stroke-width="1.5" fill="none" stroke="black" stroke-dasharray="none" d="M68.772 87L68.772 120"></path></g><g class="vf-notehead" pointer-events="bounding-box"><path stroke-width="0.3" fill="black" stroke="none" stroke-dasharray="none" d="M68.022 85M68.022 86.6848C68.022 88.7908,69.76296 90.0544,71.95320000000001 90.0544C75.54744000000001 90.0544,79.956 86.74096,79.956 83.3152C79.956 81.23728,78.32736 79.9456,76.0248 79.9456C71.58816 79.9456,68.022 83.23096,68.022 86.6848"></path></g><g class="vf-flag" pointer-events="bounding-box"><path stroke-width="0.3" fill="black" stroke="none" stroke-dasharray="none" d="M68.022 122M68.47128000000001 122.5616C69.22944000000001 122.5616,69.5664 122.33696,69.65064000000001 121.66304C70.32456 117.84416,73.32912 114.30608,75.37896 111.13304C77.93424 107.1176,80.40528 102.31592,80.40528 97.26152C80.40528 94.08848,79.59096000000001 91.22432,79.254 89.93263999999999C79.14168000000001 89.48336,78.88896000000001 89.31488,78.60816 89.31488C78.01848000000001 89.31488,77.31648000000001 90.10112,77.73768000000001 91.28048C78.29928000000001 92.96528,78.58008000000001 94.98704000000001,78.58008000000001 96.81224C78.58008000000001 99.19904,77.56920000000001 102.59672,76.95144 103.97264C75.4632 107.37031999999999,73.44144 110.6276,68.022 112.4528L68.022 121.97192C68.022 122.44928,68.21856000000001 122.5616,68.47128000000001 122.5616"></path></g></g><g class="vf-modifiers"></g></g><g class="vf-stavenote" id="vf-auto4794"><g class="vf-note" pointer-events="bounding-box"><g class="vf-stem" pointer-events="bounding-box"><path stroke-width="1.5" fill="none" stroke="black" stroke-dasharray="none" d="M119.79400000000001 87L119.79400000000001 120"></path></g><g class="vf-notehead" pointer-events="bounding-box"><path stroke-width="0.3" fill="black" stroke="none" stroke-dasharray="none" d="M119.04400000000001 85M119.04400000000001 86.6848C119.04400000000001 88.7908,120.78496000000001 90.0544,122.97520000000002 90.0544C126.56944000000001 90.0544,130.978 86.74096,130.978 83.3152C130.978 81.23728,129.34936000000002 79.9456,127.04680000000002 79.9456C122.61016000000001 79.9456,119.04400000000001 83.23096,119.04400000000001 86.6848"></path></g><g class="vf-flag" pointer-events="bounding-box"><path stroke-width="0.3" fill="black" stroke="none" stroke-dasharray="none" d="M119.04400000000001 122M119.49328000000001 122.5616C120.25144000000002 122.5616,120.58840000000001 122.33696,120.67264000000002 121.66304C121.34656000000001 117.84416,124.35112000000001 114.30608,126.40096000000001 111.13304C128.95624 107.1176,131.42728000000002 102.31592,131.42728000000002 97.26152C131.42728000000002 94.08848,130.61296000000002 91.22432,130.276 89.93263999999999C130.16368 89.48336,129.91096000000002 89.31488,129.63016000000002 89.31488C129.04048 89.31488,128.33848 90.10112,128.75968 91.28048C129.32128 92.96528,129.60208 94.98704000000001,129.60208 96.81224C129.60208 99.19904,128.59120000000001 102.59672,127.97344000000001 103.97264C126.4852 107.37031999999999,124.46344 110.6276,119.04400000000001 112.4528L119.04400000000001 121.97192C119.04400000000001 122.44928,119.24056000000002 122.5616,119.49328000000001 122.5616"></path></g></g><g class="vf-modifiers"></g></g><rect stroke-width="0.3" fill="black" stroke="black" stroke-dasharray="none" x="12" y="50" width="52.64884000000001" height="1"></rect><rect stroke-width="0.3" fill="black" stroke="black" stroke-dasharray="none" x="83.32916" y="50" width="52.64884000000001" height="1"></rect><rect stroke-width="0.3" fill="black" stroke="black" stroke-dasharray="none" x="12" y="50" width="1" height="10"></rect><rect stroke-width="0.3" fill="black" stroke="black" stroke-dasharray="none" x="135.978" y="50" width="1" height="10"></rect><path stroke-width="0.3" fill="black" stroke="none" stroke-dasharray="none" d="M69.64884 49.333333333333336M70.10820000000001 52.548853333333334C70.15572 54.32293333333334,71.7714 55.019893333333336,74.00484 55.05157333333334L74.21076000000001 55.05157333333334C76.47588 55.05157333333334,78.78852 53.895253333333336,78.78852 51.88357333333334L78.78852 51.72517333333334C78.75684000000001 51.059893333333335,78.58260000000001 50.63221333333333,78.15492 50.12533333333334C78.01236 49.95109333333333,77.83812 49.79269333333333,77.61636000000001 49.650133333333336L77.12532 49.380853333333334L76.38084 49.174933333333335C76.26996000000001 49.143253333333334,76.19076000000001 49.143253333333334,76.14324 49.064053333333334C76.12740000000001 49.016533333333335,76.12740000000001 48.984853333333334,76.12740000000001 48.95317333333334C76.12740000000001 48.858133333333335,76.14324 48.76309333333334,76.22244 48.74725333333333C76.47588 48.66805333333333,76.71348 48.652213333333336,76.91940000000001 48.541333333333334C77.83812 48.097813333333335,78.31332 47.51173333333334,78.31332 46.46629333333333C78.31332 44.35957333333334,75.46212000000001 43.74181333333333,74.51172000000001 43.67845333333334C74.40084 43.67845333333334,74.27412000000001 43.646773333333336,74.16324 43.646773333333336C72.19908000000001 43.646773333333336,70.23492 44.96149333333334,70.23492 46.165333333333336C70.23492 46.90981333333333,70.67844000000001 47.92357333333334,72.0882 48.00277333333334L72.19908000000001 48.00277333333334C73.21284 48.00277333333334,73.70388000000001 47.27413333333334,73.70388000000001 46.529653333333336L73.70388000000001 46.339573333333334C73.64052000000001 45.500053333333334,73.07028000000001 45.452533333333335,72.9594 45.405013333333336C72.84852000000001 45.35749333333334,72.50004000000001 45.405013333333336,72.50004000000001 45.088213333333336L72.50004000000001 44.99317333333334C72.54756 44.613013333333335,73.26036 44.42293333333333,73.45044 44.42293333333333C75.39876000000001 44.42293333333333,75.57300000000001 45.64261333333334,75.57300000000001 46.181173333333334L75.57300000000001 46.339573333333334C75.57300000000001 48.03445333333334,74.2266 48.699733333333334,72.801 48.76309333333334C72.5634 48.778933333333335,72.2466 48.90565333333333,72.2466 49.143253333333334C72.2466 49.42837333333333,72.6426 49.42837333333333,72.81684000000001 49.42837333333333C75.44628 49.42837333333333,75.65220000000001 51.20245333333334,75.65220000000001 51.503413333333334C75.65220000000001 53.91109333333333,74.41668000000001 54.19621333333333,73.9098 54.19621333333333C73.8306 54.19621333333333,73.73556 54.16453333333334,73.70388000000001 54.16453333333334C73.52964 54.148693333333334,73.08612000000001 54.148693333333334,73.07028000000001 53.80021333333333L73.07028000000001 53.68933333333334C73.07028000000001 53.182453333333335,73.57716 52.84981333333334,73.593 52.184533333333334C73.593 51.23413333333333,72.92772000000001 50.537173333333335,71.94564000000001 50.537173333333335C71.86644000000001 50.537173333333335,71.78724000000001 50.537173333333335,71.70804000000001 50.56885333333334C71.31204000000001 50.63221333333333,70.88436 50.853973333333336,70.59924000000001 51.15493333333333C70.21908 51.503413333333334,70.10820000000001 52.04197333333334,70.10820000000001 52.548853333333334"></path></svg>