<?xml version="1.0" encoding="iso-8859-1"?>
<!-- Uploaded to: SVG Repo, www.svgrepo.com, Generator: SVG Repo Mixer Tools -->
<svg height="800px" width="800px" version="1.1" id="Layer_1" xmlns="http://www.w3.org/2000/svg" xmlns:xlink="http://www.w3.org/1999/xlink" 
	 viewBox="0 0 483.2 483.2" xml:space="preserve">
<path style="fill:#FF7A17;" d="M193.502,376c0,13.6-10.4,24.8-24,24.8l0,0c-13.6,0-24-11.2-24-24.8V106.4c0-13.6,10.4-24.8,24-24.8
	l0,0c13.6,0,24,11.2,24,24.8V376z"/>
<g>
	<path style="fill:#F74D19;" d="M168.702,81.6L168.702,81.6c13.6,0,24.8,11.2,24.8,24.8V376c0,13.6-11.2,24.8-24.8,24.8l0,0
		c-13.6,0-24.8-11.2-24.8-24.8"/>
	<path style="fill:#F74D19;" d="M192.702,375.2c0,24,4,44-19.2,44h-89.6c-24,0-42.4-20-42.4-44l0,0c0-24-2.4-44,21.6-44h87.2
		C174.302,331.2,192.702,351.2,192.702,375.2L192.702,375.2z"/>
</g>
<path style="fill:#FF7A17;" d="M441.502,443.2c0,13.6-10.4,24-24,24l0,0c-13.6,0-24-10.4-24-24v-272c0-13.6,10.4-24,24-24l0,0
	c13.6,0,24,10.4,24,24V443.2z"/>
<g>
	<path style="fill:#F74D19;" d="M416.702,148.8L416.702,148.8c13.6,0,24.8,11.2,24.8,24.8v269.6c0,13.6-11.2,24.8-24.8,24.8l0,0
		c-13.6,0-24.8-11.2-24.8-24.8"/>
	<path style="fill:#F74D19;" d="M441.502,443.2c0,24,4,40-19.2,40h-89.6c-24,0-42.4-16-42.4-40l0,0c0-24-2.4-40,21.6-40h87.2
		C422.302,403.2,441.502,419.2,441.502,443.2L441.502,443.2z"/>
</g>
<path style="fill:#FF7A17;" d="M441.502,182.4c0,23.2-19.2,42.4-42.4,42.4l-212-32c-23.2,0-41.6-19.2-41.6-42.4v-108
	c0-23.2,18.4-42.4,41.6-42.4l212,32c23.2,0,42.4,19.2,42.4,42.4V182.4z"/>
<path style="fill:#F74D19;" d="M441.502,75.2v107.2c0,23.2-19.2,42.4-42.4,42.4l-212.8-32c-23.2,0-40.8-19.2-40.8-42.4"/>
</svg>