<?xml version="1.0" encoding="iso-8859-1"?>
<!-- Uploaded to: SVG Repo, www.svgrepo.com, Generator: SVG Repo Mixer Tools -->
<svg version="1.1" id="Capa_1" xmlns="http://www.w3.org/2000/svg" xmlns:xlink="http://www.w3.org/1999/xlink" 
	 viewBox="0 0 187.694 187.694" xml:space="preserve">
<g id="XMLID_301_">
	<path style="fill:#54372A;" d="M161.173,54.071c-0.901,0-1.803-0.346-2.487-1.038l-23.388-23.632
		c-1.36-1.374-1.349-3.59,0.025-4.95c1.375-1.359,3.59-1.349,4.949,0.026l23.388,23.632c1.36,1.374,1.349,3.59-0.025,4.95
		C162.952,53.734,162.063,54.071,161.173,54.071z"/>
	<path id="XMLID_469_" style="fill:#E0B75A;" d="M185.671,18.154L170.535,2.829L98.188,74.274
		c-12.002-6.433-26.463-5.294-35.761,3.879c-2.895,2.86-5.015,6.233-6.371,9.886c-3.066,8.258-10.829,13.847-19.632,14.137
		c-9.431,0.311-18.471,3.818-25.386,10.646c-15.747,15.549-14.496,42.359,2.795,59.873c17.296,17.513,44.085,19.106,59.835,3.557
		c6.911-6.831,10.535-15.828,10.965-25.254c0.402-8.798,6.089-16.489,14.384-19.45c3.668-1.309,7.065-3.385,9.961-6.243
		c9.297-9.18,10.62-23.629,4.34-35.709L185.671,18.154z"/>
	<path style="fill:#54372A;" d="M170.221,45.143c-0.901,0-1.803-0.346-2.487-1.038l-23.396-23.63
		c-1.36-1.374-1.349-3.589,0.024-4.95c1.374-1.359,3.59-1.349,4.95,0.025l23.396,23.63c1.36,1.374,1.349,3.589-0.024,4.95
		C172.001,44.805,171.111,45.143,170.221,45.143z"/>
	<path style="fill:#54372A;" d="M181.464,38.442c-0.901,0-1.804-0.346-2.488-1.038L151.178,9.313
		c-1.359-1.374-1.348-3.59,0.026-4.95c1.374-1.359,3.59-1.348,4.95,0.026l27.798,28.091c1.359,1.374,1.348,3.59-0.026,4.95
		C183.243,38.105,182.354,38.442,181.464,38.442z"/>
	<path id="XMLID_390_" style="opacity:0.41;fill:#302F2A;enable-background:new    ;" d="M81.399,147.765
		c0.349-7.626,5.278-14.291,12.466-16.857c3.179-1.135,6.124-2.934,8.633-5.41c10.149-10.022,9.346-27.292-1.797-38.574
		c-11.145-11.285-28.398-12.307-38.548-2.293c-2.509,2.479-4.346,5.402-5.522,8.568c-2.657,7.157-9.385,12.002-17.015,12.253
		c-8.173,0.27-16.008,3.309-22.002,9.227c-13.648,13.477-12.563,36.713,2.422,51.891c14.991,15.179,38.208,16.56,51.859,3.083
		C77.885,163.732,81.026,155.934,81.399,147.765z"/>
	<path id="XMLID_119_" style="fill:#54372A;" d="M90.601,116.045c-5.359,5.285-13.982,5.23-19.278-0.122
		c-5.279-5.353-5.224-13.983,0.125-19.271c5.359-5.288,13.983-5.23,19.272,0.119C96.005,102.129,95.951,110.759,90.601,116.045z"/>
	<path style="fill:#54372A;" d="M53.106,157.401c-1.807,0-3.612-0.694-4.981-2.082l-16.48-16.689
		c-2.716-2.75-2.688-7.183,0.063-9.898c2.751-2.719,7.183-2.69,9.899,0.063l16.48,16.689c2.716,2.75,2.688,7.183-0.063,9.898
		C56.659,156.729,54.882,157.401,53.106,157.401z"/>
	<path id="XMLID_72_" style="fill:#E0B75A;" d="M184.987,27.344c1.473-0.899,2.454-2.422,2.664-4.136
		c0.21-1.713-0.375-3.428-1.588-4.656L170.141,2.427c-1.213-1.229-2.92-1.835-4.636-1.647s-3.252,1.15-4.169,2.612l-14.073,22.42
		l15.13,15.325L184.987,27.344z"/>
	<path style="fill:#54372A;" d="M144.506,53.185c-0.384,0-0.768-0.146-1.061-0.439l-8.484-8.485c-0.586-0.586-0.586-1.536,0-2.121
		c0.586-0.586,1.535-0.586,2.121,0l8.484,8.485c0.586,0.586,0.586,1.536,0,2.121C145.274,53.038,144.89,53.185,144.506,53.185z"/>
	<path style="fill:#54372A;" d="M137.718,59.973c-0.384,0-0.768-0.146-1.061-0.439l-8.484-8.485c-0.586-0.586-0.586-1.536,0-2.121
		c0.586-0.586,1.535-0.586,2.121,0l8.484,8.485c0.586,0.586,0.586,1.536,0,2.121C138.486,59.826,138.102,59.973,137.718,59.973z"/>
	<path style="fill:#54372A;" d="M130.93,66.762c-0.384,0-0.768-0.146-1.061-0.439l-8.484-8.486c-0.586-0.586-0.586-1.536,0-2.121
		c0.586-0.586,1.535-0.586,2.121,0l8.484,8.486c0.586,0.586,0.586,1.536,0,2.121C131.697,66.615,131.314,66.762,130.93,66.762z"/>
	<path style="fill:#54372A;" d="M124.142,73.549c-0.384,0-0.768-0.146-1.061-0.439l-8.485-8.486c-0.586-0.586-0.586-1.536,0-2.121
		c0.586-0.586,1.535-0.586,2.121,0l8.485,8.486c0.586,0.586,0.586,1.536,0,2.121C124.909,73.403,124.526,73.549,124.142,73.549z"/>
	<path style="fill:#54372A;" d="M117.353,80.337c-0.384,0-0.768-0.146-1.061-0.439l-8.484-8.486c-0.586-0.586-0.586-1.536,0-2.121
		c0.586-0.586,1.535-0.586,2.121,0l8.484,8.486c0.586,0.586,0.586,1.536,0,2.121C118.12,80.191,117.736,80.337,117.353,80.337z"/>
	<path style="fill:#54372A;" d="M110.566,87.125c-0.384,0-0.768-0.146-1.061-0.439l-8.485-8.485c-0.586-0.585-0.586-1.535,0-2.121
		s1.535-0.586,2.121,0l8.485,8.485c0.586,0.585,0.586,1.535,0,2.121C111.333,86.979,110.949,87.125,110.566,87.125z"/>
	
		<rect x="103.524" y="-7.34" transform="matrix(0.7071 0.7071 -0.7071 0.7071 86.3896 -50.3926)" style="fill:#E88F27;" width="1" height="172.85"/>
	
		<rect x="105.822" y="-5.042" transform="matrix(0.7071 0.7071 -0.7071 0.7071 88.6876 -51.3448)" style="fill:#E88F27;" width="1" height="172.849"/>
	
		<rect x="101.226" y="-9.638" transform="matrix(0.7071 0.7071 -0.7071 0.7071 84.0915 -49.4407)" style="fill:#E88F27;" width="1" height="172.851"/>
	
		<rect x="108.121" y="-2.744" transform="matrix(0.7071 0.7071 -0.7071 0.7071 90.9856 -52.2969)" style="fill:#E88F27;" width="1" height="172.85"/>
	
		<rect x="110.419" y="-0.446" transform="matrix(0.7071 0.7071 -0.7071 0.7071 93.2837 -53.2488)" style="fill:#E88F27;" width="1" height="172.849"/>
	<circle id="XMLID_150_" style="fill:#54372A;" cx="163.185" cy="16.034" r="3"/>
	<circle id="XMLID_157_" style="fill:#54372A;" cx="171.671" cy="24.519" r="3"/>
	<circle id="XMLID_162_" style="fill:#54372A;" cx="154.7" cy="25.934" r="3"/>
	<circle id="XMLID_158_" style="fill:#54372A;" cx="161.771" cy="33.005" r="3"/>
	<circle id="XMLID_164_" style="fill:#54372A;" cx="146.215" cy="35.833" r="3"/>
	<circle id="XMLID_163_" style="fill:#54372A;" cx="151.872" cy="41.49" r="3"/>
	
		<rect x="33.138" y="140.056" transform="matrix(0.7026 0.7116 -0.7116 0.7026 114.4229 10.3195)" style="fill:#E88F27;" width="23.455" height="4"/>
	<path id="XMLID_206_" style="opacity:0.41;fill:#302F2A;enable-background:new    ;" d="M84.633,150.997
		c0.402-8.798,6.089-16.489,14.384-19.45c3.668-1.309,7.065-3.385,9.961-6.243c9.297-9.18,10.62-23.629,4.341-35.709l41.246-40.727
		l4.12,4.164c0.005,0.004,0.01,0.009,0.014,0.013c1.36,1.361,3.567,1.369,4.937,0.013c1.374-1.36,1.386-3.576,0.026-4.95
		l-4.116-4.159l2.852-2.816l1.493-0.912l3.843,3.88c0.004,0.004,0.008,0.008,0.012,0.013c1.361,1.361,3.568,1.368,4.938,0.012
		c1.374-1.36,1.385-3.576,0.025-4.95l-2.678-2.704l5.004-3.055l3.942,3.984c0.005,0.005,0.009,0.009,0.013,0.013
		c1.361,1.361,3.567,1.369,4.937,0.013c1.374-1.359,1.386-3.576,0.026-4.95l-2.779-2.808l3.814-2.329
		c1.473-0.899,2.454-2.423,2.664-4.136s-0.375-3.428-1.588-4.656l-7.699-7.797L15.15,173.97c17.314,16.3,43.162,17.444,58.518,2.282
		C80.579,169.42,84.203,160.424,84.633,150.997z"/>
</g>
</svg>